<svg width="65" height="67" viewBox="0 0 65 67" fill="none" xmlns="http://www.w3.org/2000/svg">
<path fill-rule="evenodd" clip-rule="evenodd" d="M0 64.5388C0 47.1138 13.4334 32.9879 30.0044 32.9879H46.7824V33.5456C46.7824 42.8118 39.2707 50.3236 30.0044 50.3236C22.5384 50.3236 16.486 56.688 16.486 64.5388H0Z" fill="#FFC300"/>
<path fill-rule="evenodd" clip-rule="evenodd" d="M0 61.9867C0 39.9625 18.4525 22.1084 41.2149 22.1084L44.0834 22.1084L41.2149 33.8946H46.7824L46.4206 38.0597H41.2149C27.5575 38.0597 16.486 48.7722 16.486 61.9867V64.5389H0V61.9867Z" fill="#FF9900"/>
<path fill-rule="evenodd" clip-rule="evenodd" d="M0 59.2303C0 36.325 18.7913 17.7566 41.9716 17.7566L52.2222 17.7566V24.0954C52.2222 29.7567 47.6329 34.3461 41.9716 34.3461C28.0634 34.3461 16.7886 45.4871 16.7886 59.2303V64.539H0V59.2303Z" fill="#FF3E80"/>
<path fill-rule="evenodd" clip-rule="evenodd" d="M0 44.654C0 21.3868 18.7913 2.52499 41.9716 2.52499H44.8928L42.1443 15.7618H52.2222V19.3766H41.9716C28.0634 19.3766 16.7886 30.6937 16.7886 44.654V64.5389H0V44.654Z" fill="#D62460"/>
<path fill-rule="evenodd" clip-rule="evenodd" d="M0 42.7125C0 19.3158 18.8081 0.349152 42.009 0.349152H64.1898C64.1898 9.70779 56.6032 17.2945 47.2445 17.2945H42.009C28.0885 17.2945 16.8036 28.6745 16.8036 42.7125V58.3131C16.8036 62.9533 13.042 66.7149 8.40181 66.7149C3.76162 66.7149 0 62.9533 0 58.3131L0 42.7125Z" fill="#8759F2"/>
</svg>
