<svg width="61" height="64" viewBox="0 0 61 64" fill="none" xmlns="http://www.w3.org/2000/svg">
<path fill-rule="evenodd" clip-rule="evenodd" d="M0 60.9999C0 44.4407 12.7659 31.0168 28.5134 31.0168H44.4576V31.5468C44.4576 40.3526 37.3191 47.491 28.5134 47.491V47.491C21.4184 47.491 15.6667 53.5392 15.6667 60.9999H0Z" fill="#FFC300"/>
<path fill-rule="evenodd" clip-rule="evenodd" d="M0 58.5746C0 37.6449 17.5356 20.6779 39.1668 20.6779L41.8928 20.6779L39.1668 31.8785H44.4576L44.1138 35.8366H39.1668C26.188 35.8366 15.6667 46.0168 15.6667 58.5746V61H0V58.5746Z" fill="#FF9900"/>
<path fill-rule="evenodd" clip-rule="evenodd" d="M0 55.9552C0 34.1881 17.8575 16.5424 39.8859 16.5424L49.6271 16.5424V22.5662C49.6271 27.9462 45.2658 32.3075 39.8859 32.3075V32.3075C26.6688 32.3075 15.9543 42.8949 15.9543 55.9552V61H0V55.9552Z" fill="#FF3E80"/>
<path fill-rule="evenodd" clip-rule="evenodd" d="M0 42.1032C0 19.9922 17.8575 2.06775 39.8859 2.06775H42.6619L40.05 14.6467H49.6271V18.0819H39.8859C26.6688 18.0819 15.9543 28.8366 15.9543 42.1032V61H0V42.1032Z" fill="#D62460"/>
<path fill-rule="evenodd" clip-rule="evenodd" d="M0 40.2581C0 18.0242 17.8735 0 39.9215 0H61V0C61 8.89358 53.7903 16.1032 44.8968 16.1032H39.9215C26.6927 16.1032 15.9686 26.9177 15.9686 40.2581V55.0835C15.9686 59.4931 12.3939 63.0678 7.98429 63.0678V63.0678C3.57469 63.0678 0 59.4931 0 55.0835L0 40.2581Z" fill="#8759F2"/>
</svg>
